<svg width="21" height="21" viewBox="0 0 21 21" fill="none" xmlns="http://www.w3.org/2000/svg">
<path d="M10.2898 15.7496C12.6094 15.7496 14.4898 13.8692 14.4898 11.5496C14.4898 9.23003 12.6094 7.34961 10.2898 7.34961C7.97025 7.34961 6.08984 9.23003 6.08984 11.5496C6.08984 13.8692 7.97025 15.7496 10.2898 15.7496Z" stroke="#F2F2F2" stroke-width="1.5" stroke-linecap="round" stroke-linejoin="round"/>
<path d="M1.89063 8.81961C1.88934 8.09009 2.12551 7.37995 2.56346 6.79651C3.00142 6.21308 3.61736 5.78807 4.31823 5.58563C5.01194 5.38267 5.62172 4.96139 6.05703 4.38438L6.76263 3.44359C7.07561 3.02629 7.48144 2.68757 7.948 2.45429C8.41456 2.22101 8.92898 2.09961 9.45062 2.09961H11.1306C11.6523 2.09961 12.1667 2.22101 12.6333 2.45429C13.0998 2.68757 13.5056 3.02629 13.8186 3.44359L14.5326 4.38438C14.9645 4.96496 15.5756 5.38716 16.2714 5.58563C16.9707 5.7896 17.5848 6.21527 18.0211 6.79856C18.4575 7.38187 18.6925 8.09117 18.6906 8.81961L18.1278 15.5396C18.0376 16.4476 17.6176 17.2911 16.9473 17.9103C16.277 18.5295 15.4029 18.8815 14.4906 18.8996H6.09063C5.17829 18.8815 4.30427 18.5295 3.63398 17.9103C2.9637 17.2911 2.54369 16.4476 2.45344 15.5396L1.89063 8.81961Z" stroke="#F2F2F2" stroke-width="1.5" stroke-linecap="round" stroke-linejoin="round"/>
</svg>
