<svg width="18" height="20" viewBox="0 0 18 20" fill="none" xmlns="http://www.w3.org/2000/svg">
<path fill-rule="evenodd" clip-rule="evenodd" d="M8.03163 0.146485H9.96837C11.653 0.146466 12.9873 0.146457 14.0316 0.286863C15.1063 0.431348 15.9762 0.735791 16.6622 1.42179C17.3482 2.10779 17.6526 2.97766 17.7972 4.05238C17.9375 5.09666 17.9375 6.43099 17.9375 8.11561V11.8857C17.9375 13.5703 17.9375 14.9046 17.7972 15.9489C17.6526 17.0236 17.3482 17.8935 16.6622 18.5796C15.9762 19.2655 15.1063 19.5699 14.0316 19.7145C12.9873 19.8548 11.653 19.8548 9.96837 19.8548H8.03163C6.34701 19.8548 5.01267 19.8548 3.9684 19.7145C2.89368 19.5699 2.02381 19.2655 1.3378 18.5796C0.651807 17.8935 0.347364 17.0236 0.202879 15.9489C0.062473 14.9046 0.0624821 13.5703 0.0625004 11.8857V8.1156C0.0624821 6.43099 0.062473 5.09666 0.202879 4.05238C0.347364 2.97766 0.651807 2.10779 1.3378 1.42179C2.02381 0.735791 2.89368 0.431348 3.9684 0.286863C5.01267 0.146457 6.347 0.146466 8.03163 0.146485ZM4.15161 1.6496C3.22936 1.77359 2.69802 2.00612 2.31008 2.39406C1.92213 2.782 1.6896 3.31335 1.56561 4.2356C1.43896 5.17762 1.4375 6.4194 1.4375 8.16732V11.834C1.4375 13.5819 1.43896 14.8237 1.56561 15.7657C1.6896 16.6879 1.92213 17.2193 2.31008 17.6072C2.69802 17.9952 3.22936 18.2277 4.15161 18.3517C5.09363 18.4784 6.33542 18.4798 8.08333 18.4798H9.91667C11.6646 18.4798 12.9064 18.4784 13.8484 18.3517C14.7706 18.2277 15.302 17.9952 15.6899 17.6072C16.0779 17.2193 16.3104 16.6879 16.4344 15.7657C16.561 14.8237 16.5625 13.5819 16.5625 11.834V8.16732C16.5625 6.4194 16.561 5.17762 16.4344 4.2356C16.3104 3.31335 16.0779 2.782 15.6899 2.39406C15.302 2.00612 14.7706 1.77359 13.8484 1.6496C12.9064 1.52294 11.6646 1.52148 9.91667 1.52148H8.08333C6.33542 1.52148 5.09363 1.52294 4.15161 1.6496ZM4.64583 6.33398C4.64583 5.95429 4.95364 5.64648 5.33333 5.64648H12.6667C13.0464 5.64648 13.3542 5.95429 13.3542 6.33398C13.3542 6.71368 13.0464 7.02148 12.6667 7.02148H5.33333C4.95364 7.02148 4.64583 6.71368 4.64583 6.33398ZM4.64583 10.0007C4.64583 9.62097 4.95364 9.31315 5.33333 9.31315H12.6667C13.0464 9.31315 13.3542 9.62097 13.3542 10.0007C13.3542 10.3803 13.0464 10.6882 12.6667 10.6882H5.33333C4.95364 10.6882 4.64583 10.3803 4.64583 10.0007ZM4.64583 13.6673C4.64583 13.2876 4.95364 12.9798 5.33333 12.9798H9.91667C10.2964 12.9798 10.6042 13.2876 10.6042 13.6673C10.6042 14.047 10.2964 14.3548 9.91667 14.3548H5.33333C4.95364 14.3548 4.64583 14.047 4.64583 13.6673Z" fill="#F2F2F2"/>
</svg>
