<svg width="20" height="20" viewBox="0 0 20 20" fill="none" xmlns="http://www.w3.org/2000/svg">
<path d="M6.66667 9.16732C7.58714 9.16732 8.33333 8.42115 8.33333 7.50065C8.33333 6.58018 7.58714 5.83398 6.66667 5.83398C5.74619 5.83398 5 6.58018 5 7.50065C5 8.42115 5.74619 9.16732 6.66667 9.16732Z" stroke="#F2F2F2" stroke-width="1.5" stroke-linecap="round" stroke-linejoin="round"/>
<path d="M5.4668 17.5009C10.1084 7.41756 13.9668 5.65089 18.3334 12.1926" stroke="#F2F2F2" stroke-width="1.5" stroke-linecap="round" stroke-linejoin="round"/>
<path d="M14.9993 2.5H4.99935C3.1584 2.5 1.66602 3.99238 1.66602 5.83333V14.1667C1.66602 16.0076 3.1584 17.5 4.99935 17.5H14.9993C16.8403 17.5 18.3327 16.0076 18.3327 14.1667V5.83333C18.3327 3.99238 16.8403 2.5 14.9993 2.5Z" stroke="#F2F2F2" stroke-width="1.5" stroke-linecap="round" stroke-linejoin="round"/>
</svg>
