<svg width="11" height="16" viewBox="0 0 11 16" fill="none" xmlns="http://www.w3.org/2000/svg">
<path d="M9.21318 9.77436L6.27679 12.7107L6.27679 1.49136C6.27679 1.07541 5.94033 0.738809 5.52436 0.738809C5.10841 0.738809 4.77196 1.07541 4.77196 1.49136L4.77196 12.7046L1.83556 9.76825C1.68871 9.62143 1.49911 9.54802 1.30336 9.54802C1.10761 9.54802 0.917861 9.62143 0.771012 9.76825C0.477462 10.0619 0.477462 10.5329 0.771012 10.8266L4.98601 15.0415C5.27971 15.3351 5.7507 15.3351 6.04434 15.0415L10.2593 10.8266C10.5529 10.5329 10.5529 10.0619 10.2593 9.76825C9.98397 9.48073 9.50682 9.48073 9.21318 9.77436Z" fill="white"/>
</svg>
