<svg width="11" height="16" viewBox="0 0 11 16" fill="none" xmlns="http://www.w3.org/2000/svg">
<path d="M1.8171 6.22564L4.75348 3.28926V14.5086C4.75348 14.9246 5.08995 15.2612 5.50591 15.2612C5.92186 15.2612 6.25831 14.9246 6.25831 14.5086V3.29538L9.19471 6.23175C9.34156 6.37857 9.53116 6.45198 9.72691 6.45198C9.92266 6.45198 10.1124 6.37857 10.2593 6.23175C10.5528 5.93812 10.5528 5.46708 10.2593 5.17344L6.04426 0.958511C5.75056 0.664871 5.27958 0.664871 4.98594 0.958511L0.771011 5.17344C0.477371 5.46708 0.477371 5.93812 0.771011 6.23175C1.04631 6.51927 1.52346 6.51927 1.8171 6.22564Z" fill="white"/>
</svg>
