<svg width="14" height="16" viewBox="0 0 14 16" fill="none" xmlns="http://www.w3.org/2000/svg">
<path d="M10.8541 16H3.14366C2.82821 15.9996 2.52581 15.8741 2.30279 15.651C2.07978 15.4279 1.95437 15.1254 1.9541 14.81V2.57284C1.9541 2.43904 2.00726 2.31073 2.10187 2.21612C2.19647 2.12152 2.32478 2.06836 2.45858 2.06836C2.59237 2.06836 2.7207 2.12152 2.81531 2.21612C2.90991 2.31073 2.96306 2.43904 2.96306 2.57284V14.8089C2.96319 14.8568 2.98225 14.9028 3.01608 14.9367C3.0499 14.9706 3.09576 14.9898 3.14366 14.99H10.8541C10.902 14.9898 10.9479 14.9706 10.9817 14.9367C11.0155 14.9028 11.0346 14.8568 11.0347 14.8089V2.57284C11.0347 2.43904 11.0878 2.31073 11.1825 2.21612C11.2771 2.12152 11.4054 2.06836 11.5392 2.06836C11.673 2.06836 11.8013 2.12152 11.8959 2.21612C11.9905 2.31073 12.0436 2.43904 12.0436 2.57284V14.8089C12.0436 15.1246 11.9184 15.4273 11.6953 15.6506C11.4723 15.874 11.1697 15.9996 10.8541 16Z" fill="#DB2B4B"/>
<path d="M5.27596 13.0746C5.14217 13.0746 5.01386 13.0214 4.91925 12.9268C4.82464 12.8322 4.77148 12.7039 4.77148 12.5701V5.50741C4.77148 5.37361 4.82464 5.2453 4.91925 5.15069C5.01386 5.05609 5.14217 5.00293 5.27596 5.00293C5.40976 5.00293 5.53807 5.05609 5.63267 5.15069C5.72728 5.2453 5.78044 5.37361 5.78044 5.50741V12.5701C5.78044 12.7039 5.72728 12.8322 5.63267 12.9268C5.53807 13.0214 5.40976 13.0746 5.27596 13.0746Z" fill="#DB2B4B"/>
<path d="M8.72323 13.0746C8.58943 13.0746 8.46111 13.0214 8.3665 12.9268C8.27189 12.8322 8.21875 12.7039 8.21875 12.5701V5.50741C8.21875 5.37361 8.27189 5.2453 8.3665 5.15069C8.46111 5.05609 8.58943 5.00293 8.72323 5.00293C8.85702 5.00293 8.98533 5.05609 9.07994 5.15069C9.17455 5.2453 9.2277 5.37361 9.2277 5.50741V12.5701C9.2277 12.7039 9.17455 12.8322 9.07994 12.9268C8.98533 13.0214 8.85702 13.0746 8.72323 13.0746Z" fill="#DB2B4B"/>
<path d="M13.0111 3.07731H0.987876C0.85408 3.07731 0.725772 3.02419 0.631164 2.92958C0.536556 2.83497 0.483398 2.70663 0.483398 2.57284C0.483398 2.43904 0.536556 2.31073 0.631164 2.21612C0.725772 2.12152 0.85408 2.06836 0.987876 2.06836H13.0111C13.1449 2.06836 13.2732 2.12152 13.3678 2.21612C13.4624 2.31073 13.5156 2.43904 13.5156 2.57284C13.5156 2.70663 13.4624 2.83497 13.3678 2.92958C13.2732 3.02419 13.1449 3.07731 13.0111 3.07731Z" fill="#DB2B4B"/>
<path d="M8.975 1.00895H4.98104C4.84724 1.00895 4.71894 0.955797 4.62433 0.861189C4.52972 0.766581 4.47656 0.638273 4.47656 0.504477C4.47656 0.370682 4.52972 0.242373 4.62433 0.147765C4.71894 0.0531574 4.84724 0 4.98104 0H8.975C9.10879 0 9.2371 0.0531574 9.33171 0.147765C9.42632 0.242373 9.47948 0.370682 9.47948 0.504477C9.47948 0.638273 9.42632 0.766581 9.33171 0.861189C9.2371 0.955797 9.10879 1.00895 8.975 1.00895Z" fill="#DB2B4B"/>
</svg>
