<svg width="25" height="25" viewBox="0 0 25 25" fill="none" xmlns="http://www.w3.org/2000/svg">
<path d="M24.3382 9.77255H20.8053C20.667 9.35242 20.4979 8.94616 20.3002 8.55669L22.7994 6.05743C23.0578 5.79904 23.0578 5.38017 22.7994 5.12184L19.8779 2.20033C19.6196 1.94194 19.2007 1.94194 18.9423 2.20033L16.4431 4.69959C16.0536 4.50191 15.6474 4.33281 15.2273 4.19448V0.661605C15.2273 0.296192 14.9312 0 14.5657 0H10.4342C10.0688 0 9.77255 0.296192 9.77255 0.661551V4.19448C9.35242 4.33276 8.94621 4.50191 8.55669 4.69959L6.05749 2.20039C5.7991 1.942 5.38023 1.942 5.12189 2.20039L2.20039 5.12189C1.942 5.38023 1.942 5.79915 2.20039 6.05749L4.69959 8.55669C4.50191 8.94616 4.33275 9.35242 4.19448 9.77255H0.661605C0.296192 9.77255 0 10.0688 0 10.4342V14.5657C0 14.9311 0.296192 15.2273 0.661605 15.2273H4.19453C4.33286 15.6474 4.50196 16.0536 4.69964 16.4431L2.20044 18.9423C1.94205 19.2007 1.94205 19.6196 2.20044 19.8779L5.12195 22.7994C5.38034 23.0578 5.79921 23.0578 6.05754 22.7994L8.55674 20.3003C8.94621 20.4979 9.35242 20.6671 9.7726 20.8054V24.3383C9.7726 24.7036 10.0688 24.9998 10.4342 24.9998H14.5658C14.9312 24.9998 15.2274 24.7036 15.2274 24.3383V20.8054C15.6475 20.6671 16.0537 20.4979 16.4432 20.3003L18.9425 22.7994C19.2008 23.0578 19.6197 23.0578 19.8781 22.7994L22.7996 19.8779C23.0579 19.6196 23.0579 19.2007 22.7996 18.9423L20.3004 16.4431C20.498 16.0537 20.6671 15.6475 20.8055 15.2273H24.3384C24.7038 15.2273 25 14.9312 25 14.5658V10.4342C24.9998 10.0688 24.7036 9.77255 24.3382 9.77255ZM12.4999 15.7937C10.6808 15.7937 9.20613 14.319 9.20613 12.4999C9.20613 10.6808 10.6808 9.20607 12.4999 9.20607C14.319 9.20607 15.7937 10.6808 15.7937 12.4999C15.7937 14.319 14.319 15.7937 12.4999 15.7937Z" fill="white"/>
</svg>
