<svg width="21" height="23" viewBox="0 0 21 23" fill="none" xmlns="http://www.w3.org/2000/svg">
<path d="M16.5114 15.7736C15.7365 15.7736 15.0147 15.9809 14.4061 16.3373L8.26369 12.392C8.3623 12.0753 8.41621 11.7412 8.41621 11.3954C8.41621 11.0496 8.3623 10.7156 8.26369 10.3989L14.2403 6.56007C14.8815 6.97913 15.6648 7.22637 16.5113 7.22637C18.6803 7.22637 20.4386 5.60868 20.4386 3.61321C20.4386 1.61774 18.6803 0 16.5114 0C14.3424 0 12.584 1.61769 12.584 3.61316C12.584 3.8767 12.6155 4.13336 12.6737 4.38085L6.5454 8.31718C5.9472 7.97822 5.24303 7.78228 4.48887 7.78228C2.31988 7.78228 0.561523 9.39997 0.561523 11.3954C0.561523 13.3909 2.31983 15.0086 4.48887 15.0086C5.24297 15.0086 5.9472 14.8127 6.5454 14.4737L12.721 18.4404C12.6322 18.7422 12.584 19.0593 12.584 19.3868C12.584 21.3823 14.3424 23 16.5114 23C18.6803 23 20.4387 21.3823 20.4387 19.3868C20.4387 17.3914 18.6803 15.7736 16.5114 15.7736Z" fill="white"/>
</svg>
