<svg width="25" height="25" viewBox="0 0 25 25" fill="none" xmlns="http://www.w3.org/2000/svg">
<path d="M12.4997 23.6976C6.32259 23.6976 1.30176 18.6768 1.30176 12.4997C1.30176 6.32259 6.32259 1.30176 12.4997 1.30176C18.6768 1.30176 23.6976 6.32259 23.6976 12.4997C23.6976 18.6768 18.6768 23.6976 12.4997 23.6976ZM12.4997 2.86426C7.18717 2.86426 2.86426 7.18717 2.86426 12.4997C2.86426 17.8122 7.18717 22.1351 12.4997 22.1351C17.8122 22.1351 22.1351 17.8122 22.1351 12.4997C22.1351 7.18717 17.8122 2.86426 12.4997 2.86426Z" fill="#E8A510"/>
<path d="M11.0206 16.2288C10.8122 16.2288 10.6143 16.1455 10.4685 15.9997L7.52051 13.0518C7.21842 12.7497 7.21842 12.2497 7.52051 11.9476C7.82259 11.6455 8.32259 11.6455 8.62467 11.9476L11.0206 14.3434L16.3747 8.98926C16.6768 8.68717 17.1768 8.68717 17.4789 8.98926C17.781 9.29134 17.781 9.79134 17.4789 10.0934L11.5726 15.9997C11.4268 16.1455 11.2289 16.2288 11.0206 16.2288Z" fill="#E8A510"/>
</svg>
