<svg width="14" height="14" viewBox="0 0 14 14" fill="none" xmlns="http://www.w3.org/2000/svg">
<path d="M13.9096 0.52L13.909 0.51375L13.9078 0.511875C13.9046 0.50375 13.8984 0.498125 13.8946 0.49C13.8578 0.41125 13.8115 0.34375 13.7559 0.284375L13.7565 0.285C13.6921 0.221875 13.619 0.1675 13.539 0.12375L13.534 0.12125C13.5146 0.11 13.4903 0.09875 13.4653 0.0881251L13.4603 0.0862502C13.3796 0.0531252 13.2859 0.033125 13.1878 0.03125H13.1871H4.34777C3.91652 0.03125 3.56652 0.38125 3.56652 0.8125C3.56652 1.24375 3.91652 1.59375 4.34777 1.59375H11.3009L0.259649 12.6344C0.117774 12.7756 0.0302734 12.9712 0.0302734 13.1875C0.0302734 13.6194 0.380273 13.9694 0.812148 13.9694C1.02777 13.9694 1.2234 13.8819 1.36465 13.7406L12.4059 2.69938V9.65125C12.4059 10.0825 12.7559 10.4325 13.1871 10.4325C13.6184 10.4325 13.9684 10.0825 13.9684 9.65125V0.8125C13.9678 0.706875 13.9459 0.60625 13.9071 0.515L13.909 0.52H13.9096Z" fill="#E8A510"/>
</svg>
