<svg width="27" height="24" viewBox="0 0 27 24" fill="none" xmlns="http://www.w3.org/2000/svg">
<path d="M25.933 8.23926C25.4175 8.23926 24.9998 8.65709 24.9998 9.17247V22.0285H2.23264V9.17247C2.23264 8.65709 1.81494 8.23926 1.29943 8.23926C0.783919 8.23926 0.366211 8.65697 0.366211 9.17247V22.9617C0.366211 23.4771 0.783919 23.8949 1.29943 23.8949H25.933C26.4485 23.8949 26.8662 23.4771 26.8662 22.9617V9.17247C26.8662 8.65697 26.4484 8.23926 25.933 8.23926Z" fill="white"/>
<path d="M12.9546 18.0191C13.1297 18.1941 13.367 18.2924 13.6146 18.2924C13.8621 18.2924 14.0994 18.1941 14.2746 18.0191L18.3027 13.9908C18.6671 13.6264 18.6671 13.0355 18.3027 12.6711C17.9381 12.3065 17.3473 12.3067 16.9829 12.6711L14.5479 15.1061L14.5484 1.06701C14.5484 0.551621 14.1307 0.133789 13.6152 0.133789C13.0998 0.133789 12.682 0.551621 12.682 1.06701L12.6815 15.1062L10.2494 12.674C9.88495 12.3095 9.29417 12.3094 8.92959 12.674C8.56514 13.0384 8.56514 13.6292 8.92959 13.9937L12.9546 18.0191Z" fill="white"/>
</svg>
