<svg width="25" height="25" viewBox="0 0 25 25" fill="none" xmlns="http://www.w3.org/2000/svg">
<path d="M12.5 0C5.60744 0 0 5.60744 0 12.5C0 19.3926 5.60744 25 12.5 25C19.3926 25 25 19.3926 25 12.5C25 5.60744 19.3926 0 12.5 0ZM12.5 23.2143C6.59216 23.2143 1.78571 18.4078 1.78571 12.5C1.78571 6.59216 6.59216 1.78571 12.5 1.78571C18.4078 1.78571 23.2143 6.59216 23.2143 12.5C23.2143 18.4078 18.4078 23.2143 12.5 23.2143Z" fill="white" fill-opacity="0.7"/>
<path d="M16.3305 8.66984C15.9817 8.32112 15.4165 8.32112 15.0678 8.66984L12.4999 11.2377L9.93195 8.66974C9.58324 8.32103 9.01796 8.32103 8.66925 8.66974C8.32054 9.01845 8.32054 9.58372 8.66925 9.93243L11.2372 12.5004L8.66925 15.0683C8.32054 15.4171 8.32054 15.9823 8.66925 16.331C8.84355 16.5054 9.07212 16.5926 9.3006 16.5926C9.52907 16.5926 9.75754 16.5054 9.93195 16.331L12.4999 13.7631L15.0679 16.331C15.2422 16.5054 15.4707 16.5926 15.6992 16.5926C15.9277 16.5926 16.1562 16.5054 16.3306 16.331C16.6793 15.9823 16.6793 15.4171 16.3306 15.0683L13.7626 12.5004L16.3306 9.93243C16.6792 9.58382 16.6792 9.01845 16.3305 8.66984Z" fill="white" fill-opacity="0.7"/>
</svg>
