<?xml version="1.0" encoding="UTF-8"?>
<svg version="1.1" xmlns="http://www.w3.org/2000/svg" width="32" height="32">
<path d="M0 0 C3.5625 -0.25 3.5625 -0.25 7 0 C8.88319268 1.88319268 8.13054285 5.11930137 8.1328125 7.625 C8.13376923 8.28709473 8.13472595 8.94918945 8.13571167 9.63134766 C8.13639326 11.03352961 8.13454042 12.4357147 8.13037109 13.83789062 C8.12502246 15.99095713 8.1303167 18.14381502 8.13671875 20.296875 C8.13605796 21.65625046 8.13477679 23.0156258 8.1328125 24.375 C8.13168457 25.62023437 8.13055664 26.86546875 8.12939453 28.1484375 C8 31 8 31 7 32 C3.5625 32.25 3.5625 32.25 0 32 C-2.30240295 28.54639557 -2.25691777 27.19500616 -2.265625 23.125 C-2.26820312 21.97515625 -2.27078125 20.8253125 -2.2734375 19.640625 C-2.26570313 18.43921875 -2.25796875 17.2378125 -2.25 16 C-2.25773437 14.79859375 -2.26546875 13.5971875 -2.2734375 12.359375 C-2.27085938 11.20953125 -2.26828125 10.0596875 -2.265625 8.875 C-2.26336914 7.82054687 -2.26111328 6.76609375 -2.25878906 5.6796875 C-2 3 -2 3 0 0 Z " fill="#E8A510" transform="translate(21,0)"/>
<path d="M0 0 C1.175625 0.0825 2.35125 0.165 3.5625 0.25 C5.86490295 3.70360443 5.81941777 5.05499384 5.828125 9.125 C5.83070312 10.27484375 5.83328125 11.4246875 5.8359375 12.609375 C5.82820312 13.81078125 5.82046875 15.0121875 5.8125 16.25 C5.82023438 17.45140625 5.82796875 18.6528125 5.8359375 19.890625 C5.83335938 21.04046875 5.83078125 22.1903125 5.828125 23.375 C5.82586914 24.42945312 5.82361328 25.48390625 5.82128906 26.5703125 C5.5625 29.25 5.5625 29.25 3.5625 32.25 C-0 32.5 -0 32.5 -3.4375 32.25 C-5.32069268 30.36680732 -4.56804285 27.13069863 -4.5703125 24.625 C-4.57126923 23.96290527 -4.57222595 23.30081055 -4.57321167 22.61865234 C-4.57389326 21.21647039 -4.57204042 19.8142853 -4.56787109 18.41210938 C-4.56252246 16.25904287 -4.5678167 14.10618498 -4.57421875 11.953125 C-4.57355796 10.59374954 -4.57227679 9.2343742 -4.5703125 7.875 C-4.56918457 6.62976563 -4.56805664 5.38453125 -4.56689453 4.1015625 C-4.37874559 -0.04481427 -4.24242478 0.30853998 0 0 Z " fill="#E8A510" transform="translate(7.4375,-0.25)"/>
</svg>
