<svg width="20" height="20" viewBox="0 0 20 20" fill="none" xmlns="http://www.w3.org/2000/svg">
<path d="M18.5737 8.32383L15.2919 11.6056C14.9905 11.9071 14.5888 12.0732 14.161 12.0733C13.733 12.0733 13.3313 11.9072 13.0297 11.6055L12.6611 11.2369C12.3489 10.9248 12.3489 10.4186 12.6611 10.1062C12.9734 9.79413 13.4795 9.79413 13.7918 10.1062L14.1605 10.4749L17.4432 7.19317C18.7215 5.91482 18.7214 3.83475 17.4432 2.55625C16.1646 1.27798 14.0844 1.27776 12.8062 2.55618L9.52428 5.83814L11.2771 7.59159L13.0845 5.78421C13.3968 5.47206 13.9028 5.47206 14.2151 5.78421C14.5273 6.09644 14.5273 6.60265 14.2151 6.91488L9.85112 11.2789L11.6038 13.0317C11.9052 13.3331 12.0712 13.7348 12.0712 14.1628C12.0712 14.5907 11.9052 14.9924 11.6037 15.2939L8.32195 18.5757C7.40387 19.4937 6.17894 19.9993 4.87297 19.9993C4.8729 19.9993 4.87297 19.9993 4.8729 19.9993C3.56686 19.9993 2.34193 19.4937 1.42385 18.5755C0.5057 17.6573 0 16.4325 0 15.1264C0 13.8204 0.505627 12.5955 1.42371 11.6774L4.70552 8.3955C5.00692 8.0941 5.40855 7.92795 5.83648 7.92788C6.26449 7.92788 6.66625 8.09395 6.96773 8.39557L7.33635 8.76427C7.64858 9.0765 7.64851 9.5827 7.33635 9.89486C7.02413 10.2071 6.51792 10.2071 6.20576 9.89479L5.83706 9.52616L2.55437 12.808C1.27602 14.0864 1.27602 16.1664 2.55437 17.4449C3.83279 18.7233 5.91294 18.7234 7.19129 17.445L10.4731 14.1631L8.72038 12.4097L6.91271 14.2173C6.60048 14.5295 6.09427 14.5295 5.78204 14.2173C5.46989 13.9051 5.46989 13.3989 5.78204 13.0867L8.15435 10.7144C8.15457 10.7141 8.15486 10.7138 8.15515 10.7136C8.15537 10.7133 8.15566 10.7131 8.15588 10.7128L10.1463 8.72226L8.39369 6.96953C8.09229 6.66814 7.92622 6.26637 7.92622 5.83843C7.92622 5.4105 8.09229 5.0088 8.39376 4.70733L11.6755 1.42552C12.5935 0.50758 13.8184 0.00195312 15.1245 0.00195312C15.1246 0.00195312 15.1245 0.00195312 15.1246 0.00195312C16.4307 0.00195312 17.6555 0.50758 18.5736 1.42573C20.4754 3.32752 20.4755 6.42197 18.5737 8.32383Z" fill="white"/>
</svg>
